<svg xmlns="http://www.w3.org/2000/svg" xmlns:xlink="http://www.w3.org/1999/xlink" viewBox="0 0 1200 1200">
<g transform="translate(600 600) scale(0.69 0.69) rotate(0) translate(-600 -600)" style="fill:#ffffff">
<svg fill="#e63f0c" xmlns="http://www.w3.org/2000/svg" xmlns:xlink="http://www.w3.org/1999/xlink" version="1.1" x="0px" y="0px" viewBox="0 0 128 128" style="enable-background:new 0 0 128 128;" xml:space="preserve"><g><g><g><path d="M48.869,91.497c-0.521,0-1.029-0.204-1.409-0.581L35.452,78.985c-0.525-0.522-0.72-1.291-0.505-1.999     c2.9-9.567,6.664-19.119,11.188-28.39c4.518-9.295,10.141-20.868,17.715-28.924c0.002-0.002,0.005-0.004,0.007-0.007     C80.841,1.777,108.117,0.996,122.86,2.125c0.989,0.076,1.773,0.865,1.843,1.854c1.03,14.741,0.117,41.969-17.568,58.708     c-7.957,7.554-19.698,13.133-29.132,17.616c-9.319,4.489-18.932,8.228-28.561,11.109C49.254,91.469,49.061,91.497,48.869,91.497z      M39.128,76.998l10.304,10.238c9.048-2.772,18.073-6.316,26.845-10.542c9.665-4.593,20.609-9.793,28.106-16.911     c15.836-14.988,17.221-39.44,16.438-53.791C106.463,5.121,81.974,6.397,66.76,22.416c-7.155,7.613-12.63,18.879-17.028,27.932     C45.48,59.059,41.916,68.019,39.128,76.998z"></path><path d="M84.979,52.692c-2.854,0-5.709-1.08-7.882-3.239c-2.109-2.096-3.271-4.884-3.271-7.85c0-2.966,1.162-5.754,3.271-7.85     c4.348-4.319,11.419-4.318,15.765,0c2.11,2.096,3.272,4.884,3.272,7.85c0,2.965-1.162,5.753-3.271,7.849l0,0     C90.689,51.613,87.834,52.692,84.979,52.692z M84.979,34.512c-1.834,0-3.667,0.693-5.063,2.08     c-1.348,1.339-2.09,3.119-2.09,5.012c0,1.893,0.742,3.672,2.091,5.012c2.792,2.774,7.335,2.773,10.125,0l0.001,0     c1.348-1.339,2.091-3.12,2.091-5.012c0-1.893-0.743-3.673-2.091-5.012C88.647,35.205,86.813,34.512,84.979,34.512z"></path><path d="M41.196,65.438c-0.053,0-0.106-0.002-0.161-0.006l-20.033-1.597c-0.606-0.048-1.157-0.37-1.498-0.874     c-0.341-0.504-0.434-1.136-0.252-1.716C19.921,59.106,26.676,40,57.653,27.522c0.785-0.318,1.688-0.104,2.248,0.535     c0.561,0.637,0.657,1.559,0.242,2.299c-0.254,0.453-0.659,0.772-1.119,0.925c-23.995,9.699-32.433,23.21-35.009,28.78     l17.338,1.382c1.101,0.088,1.922,1.052,1.835,2.153C43.104,64.644,42.229,65.438,41.196,65.438z"></path><path d="M64.803,107.202c-0.396,0-0.787-0.117-1.122-0.344c-0.502-0.34-0.822-0.89-0.871-1.495l-1.607-19.898     c-0.089-1.101,0.731-2.066,1.832-2.155c1.106-0.095,2.065,0.732,2.154,1.833l1.392,17.22c5.583-2.542,19.177-10.893,28.95-34.682     c0.123-0.447,0.401-0.854,0.818-1.132c0.069-0.046,0.16-0.098,0.234-0.135c0.743-0.372,1.643-0.245,2.254,0.322     s0.807,1.452,0.492,2.223c-12.561,30.782-31.786,37.491-33.937,38.155C65.199,107.172,65.001,107.202,64.803,107.202z"></path><path d="M119.474,40.137c-0.51,0-1.02-0.193-1.409-0.581L87.066,8.758c-0.784-0.779-0.788-2.045-0.01-2.829     s2.046-0.787,2.828-0.009l30.998,30.798c0.784,0.779,0.788,2.045,0.01,2.829C120.502,39.94,119.987,40.137,119.474,40.137z"></path></g><g><path d="M6.204,125.006c-0.5,0-1.001-0.187-1.39-0.562c-0.794-0.767-0.816-2.033-0.049-2.828l27.386-28.354     c0.769-0.793,2.033-0.816,2.828-0.049c0.794,0.767,0.816,2.033,0.049,2.828L7.643,124.396     C7.25,124.802,6.728,125.006,6.204,125.006z"></path><path d="M25.475,126.202c-0.473,0-0.946-0.167-1.327-0.505c-0.826-0.734-0.9-1.998-0.167-2.824l17.749-19.977     c0.735-0.825,1.997-0.9,2.823-0.167c0.826,0.734,0.9,1.998,0.167,2.824l-17.749,19.977     C26.575,125.975,26.026,126.202,25.475,126.202z"></path><path d="M4.999,107.056c-0.473,0-0.946-0.167-1.327-0.505c-0.826-0.734-0.9-1.998-0.167-2.824l17.75-19.977     c0.734-0.825,1.997-0.9,2.823-0.167c0.826,0.734,0.9,1.998,0.167,2.824l-17.75,19.977C6.1,106.829,5.551,107.056,4.999,107.056z"></path></g></g></g></svg></g></svg>
